# xmcd
#
# Track frame offsets: 
#        150
#        4533
#        41241
#        66777
#        100570
#        126495
#        142385
#        147507
#        167651
#        186948
#        204662
#        215114
#
# Disc length: 3185 seconds
#
# Revision: 0
# Processed by: cddbd v1.5.2PL0 Copyright (c) Steve Scherf et al.
# Submitted via: ExactAudioCopy v1.0b3
#
DISCID=c00c6f0c
DTITLE=Jerry Garcia - Garcia On Broadway Act One - Disc 2
DYEAR=1900
DGENRE=
TTITLE0=Opening Announcement
TTITLE1=I've Been All Around This World
TTITLE2=Ballad Of Casey Jones
TTITLE3=Blue Yodel #9
TTITLE4=I'm Troubled
TTITLE5=Rosa Lee McFall
TTITLE6=Band Introductions
TTITLE7=Diamond Joe
TTITLE8=I Ain't Never
TTITLE9=It's A Long Long Way To The Top Of The World
TTITLE10=Bright Morning Stars
TTITLE11=Ragged But Right
EXTD=
EXTT0=
EXTT1=
EXTT2=
EXTT3=
EXTT4=
EXTT5=
EXTT6=
EXTT7=
EXTT8=
EXTT9=
EXTT10=
EXTT11=
PLAYORDER=
